<?xml version="1.0" encoding="utf-8"?>
<!-- Svg Vector Icons : http://www.onlinewebfonts.com/icon -->
<!DOCTYPE svg PUBLIC "-//W3C//DTD SVG 1.1//EN" "http://www.w3.org/Graphics/SVG/1.1/DTD/svg11.dtd">
<svg version="1.1" xmlns="http://www.w3.org/2000/svg" xmlns:xlink="http://www.w3.org/1999/xlink" x="0px" y="0px" viewBox="0 0 256 256" enable-background="new 0 0 256 256" xml:space="preserve">
<metadata> Svg Vector Icons : http://www.onlinewebfonts.com/icon </metadata>
<g><g><g><path fill="#000000" d="M100.2,22.1c-15.2,3-32,6-39.9,6.9c-4.2,0.5-10.6,0.7-21.7,0.7c-15.4,0-15.8,0-17,1c-0.7,0.6-1.4,1.5-1.7,2s-0.1,6.6,0.3,13.9c0.9,18.1,1.4,65.7,0.7,72.8c-0.4,4.3-1,7-2.8,12.6c-3,9.2-5.2,17.7-6.8,26l-1.3,6.7v30c0,28.4,0,30.1,0.9,32.3c1,2.7,3.8,5.9,6.5,7.4c3.3,1.9,5.7,2.1,26.9,2.1c22,0,22.6,0,23.9-2.7c0.5-0.8,0.7-2.6,0.7-4.4v-3l15.1,0.1c17,0.1,16.7,0.1,20.9,3.8c1.3,1.2,3.6,2.7,5.1,3.5c4.9,2.6,6.6,2.8,32,2.8c32.2,0,41.9-0.6,58.2-3.9c20.2-4.1,39.6-11.8,44.7-17.8l1.2-1.5v-11.4c0-10.9,0-11.5-1-12.7c-0.9-1.2-0.9-1.2-0.1-4.8c0.6-2.4,0.8-5.6,0.8-9.8c0-5.5-0.1-6.6-1-8.9c-1.9-4.8-7.2-9.5-12.7-11.4c-7.2-2.5-15.4-2.2-27.9,0.9c-4,1-8.8,2-10.7,2.1c-4.1,0.4-9.3-0.6-15.2-2.7c-3.2-1.2-4.4-1.9-6.7-4c-5.7-5.3-8.3-7-26.1-16.3c-17.9-9.4-22.7-12.6-25.2-16.7c-2.7-4.5-4.1-13.1-4.9-29c-0.7-15.1,0.3-42.4,2.4-60.7c0.4-3.2,0.3-4.2-0.3-5.4c-0.7-1.4-3.1-3-4.4-2.9C112.7,19.6,106.9,20.8,100.2,22.1z M107.4,32.1c-0.1,0.6-0.5,4.6-0.8,9l-0.6,7.9l-7.3,0.1l-7.4,0.1L90,50.8c-1.8,2.1-1.8,4.6,0,6.6l1.3,1.5l7,0.1l7,0.2v4.8v4.8h-6.5c-3.9,0-6.9,0.2-7.5,0.5c-2.8,1.4-3.6,5.3-1.5,7.7c1.1,1.3,1.2,1.3,8.2,1.5l7.1,0.2l0.1,4.9l0.1,5h-7h-7L90,90.1c-1.5,1.5-1.8,3.6-0.8,5.8c1,2.2,2.4,2.5,9.9,2.5h6.9l0.6,4.7c0.3,2.6,0.7,5.2,0.8,5.7c0.2,0.9-0.2,1.2-5,2.7c-6.8,2.3-7.7,2.8-8.5,4.7c-0.9,2.1-0.5,4,1.3,5.4c1.8,1.6,3.4,1.5,9.1-0.5c2.6-0.9,5-1.6,5.4-1.6s1.3,1.3,2.2,2.9l1.6,2.9l-5,5.1c-4.9,4.9-5,5.2-5,7.2c0,3.1,2,5,5.1,5c1.3,0,2.3-0.7,7-5.4l5.4-5.4l1.3,0.8c0.7,0.4,2.2,1.4,3.4,2.1c1.2,0.7,2.2,1.5,2.2,1.7c0,0.3-1.2,3.9-2.5,8.1c-2.4,7-2.5,7.8-2.1,9.4c0.3,1.2,1,2.1,2,2.6c1.8,1.2,3.4,1.2,5.2,0c1.6-1,2-2,4.8-10.6c0.8-2.6,1.7-4.7,1.9-4.7c0.2,0,2.6,1.2,5.4,2.5l5,2.6l-2.5,7.5c-1.4,4.1-2.5,7.9-2.5,8.5c0,2.7,2.2,4.7,5.3,4.7c2.8,0,3.7-1.2,6-8.4c1.2-3.6,2.4-6.7,2.5-6.9c0.3-0.4,5.2,3,7.8,5.4c0.9,0.8,1.8,2,2.2,2.7c2.3,4.3-1.8,17.1-11.6,36.6l-5.1,10.2l-14.8,0c-8.4,0-16.6-0.3-19-0.6c-5.1-0.7-26.9-4.6-27.3-4.9c-0.1-0.1-0.4-2-0.6-4.2c-1.4-14-9.1-28.5-22.5-42.4c-10-10.3-24.7-21.1-33.4-24.4c-2.7-1.1-2.7-1.1-2.4-2.7c1.2-7.6,1.4-12.4,1.4-32.5c0-19.5-0.7-45.2-1.4-52.7l-0.2-2.8l15.8-0.2c13.4-0.1,16.8-0.4,22.3-1.2c7.2-1.2,32.7-5.8,35.5-6.4c1-0.3,2.4-0.5,3.2-0.5C107.5,31.1,107.6,31.2,107.4,32.1z M31.4,140.7c20.7,11.1,39.3,30.9,45,47.8c1.1,3.3,2.5,10.4,2.1,10.8c-0.1,0.1-2.5-0.2-5.4-0.7c-8.5-1.4-16.8-1.8-35.8-1.8H19.4l0.2-15.4c0.3-17.1,0.6-19.8,4.1-33.3c2.1-8.3,2.5-9.5,3.3-9.5C27.3,138.6,29.2,139.5,31.4,140.7z M229.7,163.9c3,1.3,5.4,4,6.1,6.5c1.1,4.2-0.5,14.1-2.9,17.6c-1.4,2.1-1.7,2.3-6.8,4.1c-20.3,7.3-27.7,9.6-39.8,11.7c-7,1.3-18.2,2.6-22.5,2.6h-2.8l2.7-5.4c6.4-12.9,11.4-25.8,12.6-32.8c0.5-3,0.6-3.4,1.5-3.2c11.2,2.7,17,2.8,26.3,0.3c9.3-2.4,11.1-2.7,17.3-2.6C226.4,162.9,227.7,163,229.7,163.9z M236.3,204.1v5.1l-1.4,1c-5.7,4.1-23.1,10-37.6,12.9c-14.6,2.9-15.7,3-48.7,3.2c-22,0.1-30.7,0-32.1-0.4c-1.1-0.3-3.3-1.7-5.3-3.3c-3.6-3-6-4.2-9.9-5.3c-3-0.8-38-0.9-39.6-0.1c-2,1.1-2.6,2.3-2.6,5.8v3.4H40.9H22.7l-1.5-1.3l-1.5-1.3l-0.1-8.4l-0.2-8.4l23.3,0.2c18.3,0.1,24.1,0.3,27.4,0.9c2.3,0.4,12.2,2.2,22,4c9.8,1.8,19.7,3.5,22.1,3.8c6.1,0.8,51,0.8,59,0c18.3-1.9,33.2-5.7,55.1-13.9c4.1-1.5,7.5-2.8,7.8-2.8C236.2,199,236.3,201.3,236.3,204.1z"/></g></g></g>
</svg>