<?xml version="1.0" encoding="iso-8859-1"?>
<!-- Uploaded to: SVG Repo, www.svgrepo.com, Generator: SVG Repo Mixer Tools -->
<!DOCTYPE svg PUBLIC "-//W3C//DTD SVG 1.1//EN" "http://www.w3.org/Graphics/SVG/1.1/DTD/svg11.dtd">
<svg fill="#000000" version="1.1" id="Capa_1" xmlns="http://www.w3.org/2000/svg" xmlns:xlink="http://www.w3.org/1999/xlink" 
	 width="800px" height="800px" viewBox="0 0 970.6 970.6" xml:space="preserve"
	>
<g>
	<g>
		<path d="M695.871,381.1h188.801c21.199,0,32.799-24.7,19.199-41l-86.699-104.2c-14-16.8-39.801-16.8-53.801,0l-86.699,104.2
			C663.07,356.4,674.672,381.1,695.871,381.1z"/>
		<path d="M763.371,734.7c14,16.8,39.801,16.8,53.801,0l86.699-104.2c13.5-16.3,2-41-19.199-41H695.871
			c-21.199,0-32.801,24.7-19.199,41L763.371,734.7z"/>
		<path d="M123.371,547.8h136.2v160.3h-103.2c-34.5,0-62.5,28-62.5,62.5s28,62.5,62.5,62.5h103.2v75c0,34.5,28,62.5,62.5,62.5
			s62.5-28,62.5-62.5v-75h130.101c34.5,0,62.5-28,62.5-62.5V485.3c0-34.5-28-62.5-62.5-62.5H384.471V262.5h112.9
			c34.5,0,62.5-28,62.5-62.5s-28-62.5-62.5-62.5h-112.9v-75c0-34.5-28-62.5-62.5-62.5s-62.5,28-62.5,62.5v75h-136.1
			c-34.5,0-62.5,28-62.5,62.5v285.3C60.871,519.8,88.871,547.8,123.371,547.8z M384.471,547.8h67.6v160.3h-67.6V547.8z
			 M185.871,262.5h73.7v160.3h-73.7V262.5L185.871,262.5z"/>
	</g>
</g>
</svg>