<?xml version="1.0" encoding="iso-8859-1"?>
<!-- Uploaded to: SVG Repo, www.svgrepo.com, Generator: SVG Repo Mixer Tools -->
<!DOCTYPE svg PUBLIC "-//W3C//DTD SVG 1.1//EN" "http://www.w3.org/Graphics/SVG/1.1/DTD/svg11.dtd">
<svg fill="#000000" height="800px" width="800px" version="1.1" id="Capa_1" xmlns="http://www.w3.org/2000/svg" xmlns:xlink="http://www.w3.org/1999/xlink" 
	 viewBox="0 0 297 297" xml:space="preserve">
<g>
	<path d="M148.5,181.896c-5.752,0-10.431,4.68-10.431,10.432c0,5.752,4.68,10.431,10.431,10.431s10.431-4.68,10.431-10.431
		C158.931,186.576,154.252,181.896,148.5,181.896z"/>
	<path d="M78.776,160.129c-14.323-8.269-32.695-3.343-40.962,10.975c-4.005,6.937-5.068,15.017-2.995,22.754
		s7.035,14.203,13.971,18.207c4.62,2.667,9.748,4.03,14.944,4.03c2.605,0,5.226-0.342,7.81-1.035
		c7.737-2.073,14.203-7.035,18.207-13.971C98.018,186.77,93.095,168.396,78.776,160.129z M83.384,191.917l-11.05-6.379
		c-0.037-0.554-0.129-1.109-0.276-1.657c-0.543-2.027-1.786-3.741-3.515-4.895V166.2c1.876,0.448,3.72,1.16,5.474,2.172
		C82.369,173.194,86.015,183.052,83.384,191.917z M46.059,175.863c2.92-5.058,7.69-8.389,12.965-9.652v12.775
		c-1.059,0.707-1.981,1.652-2.66,2.828c-0.668,1.156-1.04,2.425-1.125,3.719l-11.057,6.384c-0.052-0.176-0.12-0.345-0.168-0.523
		C42.599,186.113,43.326,180.598,46.059,175.863z M69.08,205.865c-5.279,1.414-10.796,0.689-15.53-2.044
		c-1.736-1.002-3.286-2.235-4.629-3.649l11.092-6.404c1.184,0.584,2.46,0.898,3.757,0.898c0.744,0,1.493-0.099,2.231-0.296
		c0.549-0.147,1.075-0.346,1.574-0.59l11.054,6.382C76.056,202.887,72.79,204.871,69.08,205.865z"/>
	<path d="M218.224,160.129c-14.319,8.267-19.242,26.642-10.975,40.961c4.005,6.936,10.47,11.898,18.207,13.971
		c2.583,0.693,5.205,1.035,7.81,1.035c5.196,0,10.324-1.363,14.944-4.03c6.936-4.005,11.898-10.47,13.971-18.207
		c2.073-7.737,1.01-15.817-2.995-22.754C250.918,156.787,232.544,151.861,218.224,160.129z M250.941,175.863
		c2.733,4.735,3.459,10.25,2.044,15.531c-0.048,0.178-0.116,0.347-0.168,0.523l-11.057-6.384c-0.084-1.294-0.457-2.563-1.125-3.72
		c-0.679-1.175-1.6-2.12-2.66-2.827v-12.766C243.251,167.485,248.021,170.806,250.941,175.863z M222.983,168.372
		c1.753-1.012,3.598-1.724,5.474-2.171v12.784c-1.729,1.154-2.972,2.868-3.515,4.895c-0.147,0.548-0.238,1.103-0.276,1.657
		l-11.05,6.379C210.985,183.052,214.631,173.194,222.983,168.372z M227.92,205.865c-3.71-0.994-6.976-2.978-9.548-5.702
		l11.054-6.382c0.499,0.245,1.025,0.443,1.574,0.591c0.738,0.198,1.487,0.296,2.231,0.296c1.297,0,2.573-0.315,3.757-0.898
		l11.092,6.404c-1.343,1.414-2.893,2.646-4.629,3.648C238.714,206.553,233.198,207.278,227.92,205.865z"/>
	<path d="M294.909,153.288l-25.544-25.544c-1.34-1.339-3.155-2.091-5.049-2.091H249.88V64.255c0-1.894-0.752-3.709-2.091-5.049
		l-25.702-25.702c-1.34-1.339-3.155-2.091-5.049-2.091H195.62c-3.943,0-7.139,3.196-7.139,7.139v24.274h-24.274
		c-3.943,0-7.139,3.196-7.139,7.139v47.12c0,3.943,3.196,7.139,7.139,7.139h24.274v17.135h-79.962v-17.135h24.274
		c3.943,0,7.139-3.196,7.139-7.139v-47.12c0-3.943-3.196-7.139-7.139-7.139h-24.274V38.553c0-3.943-3.196-7.139-7.139-7.139H79.962
		c-1.894,0-3.709,0.752-5.049,2.091L49.211,59.206c-1.339,1.34-2.091,3.155-2.091,5.049v61.399H32.683
		c-1.894,0-3.709,0.752-5.049,2.091L2.091,153.288C0.752,154.628,0,156.444,0,158.337v100.11c0,3.943,3.196,7.139,7.139,7.139
		h282.721c3.943,0,7.139-3.196,7.139-7.139v-100.11C297,156.444,296.248,154.628,294.909,153.288z M171.346,109.947V77.106h17.135
		v32.841H171.346z M125.654,77.106v32.841h-17.135V77.106H125.654z M282.721,251.308H14.279v-90.013l21.362-21.362H54.26
		c3.943,0,7.139-3.196,7.139-7.139V67.212l21.52-21.52H94.24V148.5c0,3.943,3.196,7.139,7.139,7.139h94.24
		c3.943,0,7.139-3.196,7.139-7.139V45.692h11.322l21.52,21.52v65.581c0,3.943,3.196,7.139,7.139,7.139h18.619l21.362,21.362V251.308
		z"/>
</g>
</svg>